<svg xmlns="http://www.w3.org/2000/svg" width="200" height="174" viewBox="0 0 200 174">
  <path
    fill="white"
    fill-rule="evenodd"
    d="
      M 159.014 134.928
      L 112.000 162.072
      A 24.000 24.000 0 0 1 88.000 162.072
      L 40.986 134.928
      A 24.000 24.000 0 0 1 28.986 114.144
      L 28.986 59.856
      A 24.000 24.000 0 0 1 40.986 39.072
      L 88.000 11.928
      A 24.000 24.000 0 0 1 112.000 11.928
      L 159.014 39.072
      A 24.000 24.000 0 0 1 171.014 59.856
      L 171.014 114.144
      A 24.000 24.000 0 0 1 159.014 134.928
      Z

      M 151.014 121.072
      L 104.000 148.215
      A 8.000 8.000 0 0 1 96.000 148.215
      L 48.986 121.072
      A 8.000 8.000 0 0 1 44.986 114.144
      L 44.986 59.856
      A 8.000 8.000 0 0 1 48.986 52.928
      L 96.000 25.785
      A 8.000 8.000 0 0 1 104.000 25.785
      L 151.014 52.928
      A 8.000 8.000 0 0 1 155.014 59.856
      L 155.014 114.144
      A 8.000 8.000 0 0 1 151.014 121.072
      Z
    "
  />
</svg>
