<svg width="500" height="500" viewBox="0 0 500 500" fill="none" xmlns="http://www.w3.org/2000/svg">
<g clip-path="url(#clip0_191_166)">
<path fill-rule="evenodd" clip-rule="evenodd" d="M123.698 267.394C126.344 266.582 129.636 267.811 131.469 270.373C132.052 271.165 132.219 272.29 132.427 273.29C132.49 273.582 132.011 273.978 131.594 274.332C129.011 272.29 126.594 270.29 124.219 268.269C123.99 268.061 123.886 267.707 123.698 267.394ZM174.907 196.082C178.969 195.415 183.032 194.832 187.157 195.04C188.205 195.076 189.242 195.258 190.24 195.582C194.448 197.061 198.615 198.644 202.761 200.248C203.344 200.457 203.802 200.998 204.323 201.394L204.052 201.957C202.238 201.366 200.432 200.748 198.636 200.103C196.24 199.311 194.198 198.498 192.073 198.061C186.865 197.019 186.865 197.103 185.99 197.769L197.948 200.769C203.677 203.665 209.407 206.519 215.094 209.457C215.969 209.915 216.969 210.644 217.323 211.498C217.865 212.748 218.636 213.082 219.761 212.998C221.136 212.873 222.511 212.644 224.198 212.436L223.365 214.228C224.427 215.894 226.323 214.644 227.865 215.561C226.323 218.269 222.719 217.436 220.907 219.707L222.177 221.248L219.677 223.061C219.677 225.269 218.886 226.561 213.302 228.123L213.844 229.894L209.761 230.769L211.219 233.353H206.011L205.865 236.207C204.177 235.998 202.511 235.832 200.782 235.644L199.677 238.207C199.115 238.04 198.594 237.978 198.157 237.728C196.761 236.936 195.49 236.561 194.094 237.853C193.698 238.207 192.782 238.144 192.157 238.019C191.615 237.894 191.115 237.415 190.698 237.144C188.407 239.123 188.407 239.123 186.365 237.207C185.177 238.165 183.865 238.748 182.49 237.436C181.177 237.998 179.927 237.019 178.782 237.144C177.323 237.29 176.761 236.415 176.011 235.686L173.302 236.373C173.032 231.457 169.261 232.415 166.219 232.144C166.323 230.644 167.261 230.228 168.198 230.186C169.32 230.149 170.441 230.304 171.511 230.644C174.927 231.686 178.177 233.144 181.844 233.519C186.073 233.957 190.282 234.123 194.365 233.207C199.886 231.978 205.198 230.103 209.094 225.603C210.115 224.436 210.823 222.957 211.532 221.54C211.927 220.748 211.948 219.79 211.115 219.123C208.717 217.206 206.031 215.68 203.157 214.603C203.657 217.103 202.511 218.394 200.761 219.207C200.761 219.498 200.677 219.728 200.761 219.832C202.427 222.228 202.511 223.165 200.615 225.394C199.266 227.021 197.743 228.495 196.073 229.79C194.118 231.313 191.665 232.05 189.194 231.857C186.724 231.665 184.414 230.556 182.719 228.748C181.718 227.763 180.792 226.705 179.948 225.582C178.323 223.353 178.365 223.332 179.261 220.665C175.823 218.998 176.594 215.957 177.094 213.082C177.261 212.04 177.677 211.082 178.115 209.686C177.282 209.978 176.719 210.04 176.302 210.353C173.477 212.192 171.202 214.762 169.719 217.79C169.573 218.123 169.511 218.498 169.302 218.769C169.052 219.082 168.594 219.561 168.365 219.498C167.948 219.373 167.594 218.936 167.323 218.561C167.157 218.311 167.177 217.894 167.073 217.373H164.448L165.552 213.79C165.282 213.449 165.011 213.109 164.74 212.769L167.032 206.853C165.782 207.394 165.136 207.769 164.448 207.915C163.823 208.061 163.115 207.915 162.469 207.915C162.469 207.269 162.261 206.457 162.552 205.998C165.657 201.415 168.907 197.082 174.907 196.082Z" fill="black"/>
<path fill-rule="evenodd" clip-rule="evenodd" d="M167.914 224.746C167.852 223.954 167.831 223.183 168.685 223.454C169.018 223.579 169.393 224.454 169.268 224.85C169.06 225.683 168.456 225.517 167.914 224.746Z" fill="black"/>
<path fill-rule="evenodd" clip-rule="evenodd" d="M249.611 0.189904C254.32 -0.0600958 259.049 -0.0392625 263.757 0.189904C268.903 0.398237 274.07 0.689904 279.174 1.48157C287.528 2.8149 295.799 4.7524 303.965 7.16907C313.611 10.0441 323.132 13.3982 332.215 17.8149C357.36 30.1642 378.612 49.2098 393.632 72.8566C399.715 82.6274 404.799 92.9191 409.028 103.669C413.59 115.252 418.32 126.794 422.007 138.732C426.257 152.357 428.861 166.357 431.549 180.336C433.57 190.836 435.34 201.377 437.59 211.815C440.84 226.857 444.445 241.815 447.882 256.815C451.757 273.732 456.215 290.461 461.007 307.127C463.132 314.523 465.028 321.982 466.882 329.461C469.174 338.544 471.09 347.711 472.174 357.023C472.82 362.815 473.549 368.627 473.695 374.461C473.933 380.574 473.814 386.695 473.34 392.794C472.57 401.398 471.257 409.836 468.632 418.044C464.507 430.597 458.038 442.255 449.57 452.398L446.861 455.648L447.236 456.127C448.132 455.648 449.07 455.273 449.882 454.711C454.049 451.836 457.653 448.315 460.945 444.502C469.278 434.919 475.965 424.232 481.257 412.648C486.436 401.445 488.762 389.135 488.028 376.815C487.528 367.982 486.007 359.44 481.778 351.544C481.507 350.982 481.465 350.294 481.153 349.023C482.195 349.752 482.861 350.023 483.257 350.523C485.486 353.232 487.84 355.898 489.82 358.815C496.695 369.107 499.403 380.732 499.945 392.982C500.507 407.301 497.119 421.5 490.153 434.023C482.653 447.669 471.674 457.773 458.361 465.398C454.34 467.711 450.153 469.773 445.965 471.815C442.695 473.44 440.799 476.211 439.34 479.419C438.665 480.711 438.256 482.125 438.138 483.578C438.019 485.031 438.195 486.493 438.653 487.877C438.932 488.816 439.024 489.8 438.924 490.773C438.82 492.377 437.32 494.002 436.007 494.148C434.882 494.273 433.403 493.252 432.882 491.732C432.305 490.159 431.886 488.533 431.632 486.877C430.799 480.336 428.403 474.377 425.215 468.752C421.124 461.707 415.997 455.317 410.007 449.794C404.775 444.668 398.355 440.917 391.32 438.877C386.601 437.555 381.778 436.642 376.903 436.148C375.34 435.982 373.778 435.315 372.32 436.357C376.07 437.607 379.882 438.648 383.528 440.107C392.57 443.711 400.611 449.065 408.111 455.273C414.528 460.586 420.195 466.586 424.653 473.69C426.695 476.919 428.528 480.252 429.382 484.023C429.945 486.586 430.257 489.232 430.778 491.836C431.049 493.127 430.736 494.107 429.674 494.836C428.695 495.523 427.132 495.544 426.278 494.627C425.553 493.762 424.989 492.774 424.611 491.711C423.986 490.19 423.82 488.398 422.986 487.023C414.9 474.046 404.906 462.359 393.34 452.357C390.007 449.502 386.486 446.94 382.153 445.627C374.32 443.252 366.465 441.398 358.195 442.419C353.757 442.94 349.299 443.086 344.861 443.523C339.348 444.147 334.077 446.138 329.528 449.315C323.216 453.678 317.39 458.707 312.153 464.315C305.299 471.44 298.778 478.877 292.257 486.294C289.424 489.523 286.757 492.94 285.715 497.357C285.63 497.71 285.547 498.064 285.465 498.419C285.373 498.854 285.139 499.245 284.799 499.532C284.46 499.819 284.034 499.984 283.59 500.002H277.132C276.174 500.002 275.424 499.002 275.632 498.044C276.111 495.794 276.57 493.544 277.09 491.294C278.653 484.523 281.049 478.065 284.757 472.19C285.257 471.377 285.59 470.357 286.924 470.523L287.132 471.544L287.695 473.148C293.528 464.086 299.59 455.773 308.445 449.502C314.34 445.252 320.611 441.627 326.986 438.044C326.32 437.857 325.618 437.843 324.945 438.002C321.57 438.898 318.174 439.752 314.84 440.794C306.465 443.377 298.924 447.669 291.715 452.586C288.653 454.669 285.507 456.607 283.09 459.523C273.956 470.678 266.45 483.072 260.799 496.336C260.459 497.147 260.18 497.983 259.965 498.836C259.878 499.168 259.684 499.462 259.413 499.673C259.142 499.884 258.809 500 258.465 500.002H248.174C247.34 500.002 246.882 498.94 247.424 498.294C249.986 495.377 252.549 492.419 255.278 489.648C261.007 483.794 267.361 478.565 271.465 471.232C272.028 470.232 272.778 469.357 273.445 468.419C278.403 461.482 284.695 455.773 290.486 449.627C292.195 447.836 294.132 446.294 295.903 444.627C296.507 444.065 297.007 443.44 297.549 442.857L297.174 442.336L294.361 443.19C293.653 443.544 292.903 443.836 292.236 444.232C287.07 447.232 281.945 450.315 276.757 453.252C268.257 458.044 259.57 462.398 251.57 468.065C245.715 472.232 239.257 475.523 233.049 479.169C232.632 479.419 232.132 479.482 231.382 479.752C231.07 476.94 234.361 475.565 233.632 472.752C232.945 473.044 232.299 473.169 231.861 473.544C229.549 475.544 227.132 477.502 225.028 479.711C221.945 482.982 219.111 486.482 216.174 489.877C213.57 492.857 210.965 495.836 208.403 498.857C208.114 499.203 207.755 499.485 207.349 499.682C206.943 499.88 206.5 499.989 206.049 500.002H182.549C182.68 499.719 182.792 499.427 182.882 499.127C183.465 497.252 184.653 495.544 184.611 493.294C182.715 492.919 181.236 493.315 180.195 494.898C179.208 496.364 178.263 497.858 177.361 499.377C177.153 499.711 176.861 500.002 176.486 500.002H174.549C174.153 500.002 173.945 499.544 174.195 499.232C175.674 497.398 177.111 495.523 178.549 493.648C178.57 493.607 178.424 493.398 178.299 493.148C178.007 493.232 177.674 493.273 177.361 493.419C173.695 495.294 170.028 497.19 166.382 499.127C165.303 499.697 164.102 499.997 162.882 500.002H108.382C107.84 500.002 107.57 499.252 107.986 498.898C112.361 495.19 116.361 491.107 119.611 486.294C126.59 475.961 130.82 464.482 133.507 452.357C133.59 451.94 133.445 451.461 133.382 450.461C132.611 451.461 132.153 451.961 131.799 452.544C129.887 455.732 127.546 458.641 124.84 461.19C119.007 466.565 112.549 470.523 104.361 470.857C98.1737 471.107 92.1112 470.857 86.3404 468.211C76.7571 463.836 71.2987 456.336 69.7987 445.877C69.2779 442.336 69.4446 442.315 66.0071 441.315C56.989 438.895 48.5173 434.773 41.0487 429.169C33.1314 423.258 27.2486 415.031 24.2154 405.627C21.5807 397.246 20.4521 388.465 20.8821 379.69C20.9237 378.982 21.2154 378.294 21.3821 377.607C22.0487 378.086 22.3404 378.502 22.4237 378.982C23.1112 382.169 23.6529 385.398 24.4237 388.565C26.2154 395.961 29.7779 402.398 35.1737 407.732C40.5487 413.065 47.0696 416.461 54.1321 418.815C61.5904 421.273 69.0696 421.69 76.4237 418.482C81.3353 416.261 85.7387 413.056 89.3612 409.065C96.1946 401.815 100.465 393.232 102.861 383.586C103.049 382.877 102.965 382.107 103.007 381.294C102.695 381.419 102.465 381.419 102.382 381.523C101.736 382.565 101.049 383.607 100.445 384.69C94.5279 395.148 86.2987 403.169 75.5279 408.336C68.2154 411.877 60.5696 413.648 52.4029 411.648C44.2317 409.885 37.0158 405.129 32.1737 398.315C28.0428 392.644 25.4062 386.023 24.5071 379.065C23.7004 372.927 23.841 366.702 24.9237 360.607C25.9654 351.461 34.6321 336.232 40.3821 334.127C39.9654 335.44 39.6529 336.461 39.2779 337.461C38.3821 339.877 37.2571 342.19 36.5696 344.648C34.9814 350.199 34.6258 356.029 35.5279 361.732C36.2154 366.148 37.4029 370.398 39.7779 374.232C42.8404 379.148 46.9862 382.711 52.6946 383.919C54.9862 384.398 57.3821 384.211 59.7362 384.294C62.6598 384.395 65.5196 383.424 67.7779 381.565C71.1946 378.898 73.6529 375.482 75.4029 371.544C78.9029 363.732 80.4029 355.357 81.8404 346.982C82.8821 340.815 83.7779 334.607 84.6112 328.377C85.4237 322.523 86.0904 316.648 86.7779 310.773C87.3196 305.94 87.7779 301.107 88.3196 296.273C88.8196 291.523 89.4029 286.794 89.9029 282.044C90.4029 277.315 90.8821 272.565 91.3404 267.815C91.6112 264.898 91.7987 261.982 92.0487 259.065L92.8196 250.377C93.2779 245.169 93.6737 239.961 94.1737 234.794C94.3404 233.086 93.7571 232.044 92.2987 231.107C88.5143 228.667 85.068 225.739 82.0487 222.398C79.9654 220.127 78.1321 217.648 76.1737 215.273C75.4446 214.398 75.0071 213.252 73.7571 212.815C74.9969 217.238 76.9306 221.436 79.4862 225.252C80.7362 227.169 82.2154 228.919 83.5696 230.773C84.8821 232.565 87.3612 233.169 88.4446 235.482C87.8612 235.544 87.4862 235.69 87.1946 235.607C85.6575 235.247 84.1293 234.851 82.6112 234.419C72.2243 231.416 62.918 225.494 55.7987 217.357C46.7362 207.211 42.1321 194.94 41.0071 181.461C40.3526 174.109 40.4503 166.709 41.2987 159.377C42.7987 146.836 45.8821 134.669 50.6737 123.023C53.9029 115.19 57.7154 107.586 61.6321 100.065C65.9029 91.8774 71.3404 84.4399 77.5696 77.6482C88.2362 66.0024 100.57 56.3149 113.528 47.4816C128.465 37.2732 144.32 28.7732 160.965 21.7941C171.757 17.2524 182.653 13.1691 193.965 10.2941C207.611 6.83574 221.257 3.41907 235.257 1.64824C240.028 1.02324 244.799 0.439904 249.59 0.189904H249.611ZM211.132 475.607C209.674 476.857 208.07 477.919 206.82 479.357C201.861 484.982 197.153 490.794 192.903 497.461L191.986 499.711C192.741 499.529 193.419 499.113 193.924 498.523C197.549 494.565 201.236 490.648 204.736 486.565C206.903 484.023 208.799 481.252 210.736 478.523C211.236 477.815 211.361 476.857 211.695 476.023L211.132 475.607ZM245.507 398.627C240.649 402.375 236.1 406.507 231.903 410.982L224.195 419.023C222.027 421.358 219.335 423.144 216.34 424.232C213.231 425.418 209.939 426.053 206.611 426.107C205.695 426.107 204.799 426.232 203.465 426.357C204.049 427.565 204.361 428.377 204.799 429.086C207.924 434.127 211.07 439.127 214.174 444.169C217.007 448.752 219.924 453.294 222.486 458.044C223.903 460.648 224.674 463.607 225.736 466.461C227.34 467.023 228.653 466.086 229.945 465.461C235.986 462.648 242.007 459.752 248.007 456.877C252.445 454.773 257.111 453.002 261.257 450.419C268.486 445.94 275.424 440.94 282.465 436.148C282.778 435.94 283.007 435.565 283.34 435.19C282.861 434.794 282.549 434.419 282.174 434.273C276.195 431.961 271.195 428.023 266.132 424.232C262.441 421.535 258.92 418.613 255.59 415.482C251.771 411.635 248.854 406.989 247.049 401.877C246.653 400.857 246.111 399.898 245.486 398.627H245.507ZM123.695 404.127C122.445 406.127 121.674 408.169 120.945 410.232C118.323 417.856 114.412 424.973 109.382 431.273C105.215 436.482 99.9029 439.857 93.5071 441.544C88.7154 442.794 83.8404 443.127 78.9237 443.002C77.9237 442.961 76.9029 443.044 75.6321 443.107C75.9654 443.94 76.0696 444.482 76.3612 444.877C78.4446 447.898 81.1529 450.002 84.6946 451.023C87.9654 451.982 91.2779 451.732 95.0696 451.502C98.8404 450.732 102.215 449.107 105.174 446.627C110.132 442.482 113.549 437.169 116.34 431.377C119.986 423.815 121.84 415.732 123.465 407.544C123.674 406.44 123.632 405.252 123.695 404.127ZM435.049 308.586C435.215 309.19 435.382 309.773 435.611 310.815C436.111 314.044 436.674 317.273 437.111 320.482C437.736 325.044 438.507 329.586 438.736 334.169C439.09 341.336 439.299 348.523 438.445 355.69C437.674 362.252 437.132 368.877 436.028 375.398C434.211 386.309 430.99 396.939 426.445 407.023C426.278 407.398 426.236 407.836 426.028 408.732C427.007 408.107 427.632 407.857 428.07 407.398C429.84 405.669 431.611 403.919 433.236 402.086C438.882 395.732 442.778 388.336 445.653 380.357C449.403 369.982 450.403 359.294 448.674 348.461C446.528 334.919 441.799 322.148 436.236 309.273C436.071 308.891 435.904 308.509 435.736 308.127L435.049 308.586ZM120.778 172.711C120.578 173.787 120.709 174.898 121.153 175.898C123.736 181.127 126.361 186.336 129.049 191.523C129.57 192.544 130.424 193.398 129.674 194.919C123.757 196.169 117.632 197.398 111.34 200.232C112.57 201.023 113.361 201.482 114.09 202.044C114.965 202.711 116.424 203.252 115.965 204.544C115.757 205.232 114.403 205.544 113.528 206.044C113.882 206.252 114.424 206.482 114.924 206.794C118.382 208.919 121.799 211.107 124.236 214.461C127.111 218.461 129.007 222.877 128.153 227.877C126.507 237.648 121.778 245.586 113.778 251.461C112.653 252.294 111.57 253.19 110.424 254.002C109.609 254.553 108.972 255.329 108.591 256.235C108.21 257.142 108.101 258.139 108.278 259.107C108.479 260.505 108.865 261.871 109.424 263.169C111.153 267.252 114.007 270.461 117.236 273.419C118.965 275.002 120.549 276.836 121.861 278.773C122.646 279.915 123.108 281.247 123.2 282.629C123.291 284.011 123.009 285.392 122.382 286.627C121.903 287.669 121.34 288.69 120.799 289.711C120.174 290.961 120.215 292.023 121.257 293.086C122.111 293.961 122.924 294.94 123.59 295.961C124.382 297.169 125.215 297.607 126.653 297.002C128.878 296.145 131.335 296.101 133.59 296.877C136.924 297.836 139.882 299.502 142.84 301.252C145.549 302.857 148.34 304.357 151.174 305.815C152.57 306.544 154.09 306.857 155.736 306.357C157.215 305.898 158.32 306.565 158.757 307.94C159.174 309.273 158.695 310.19 157.215 310.836C155.757 311.461 154.361 312.148 152.861 312.669C150.778 313.398 148.674 314.19 146.32 314.273C146.049 312.044 148.611 312.44 148.965 310.961C144.674 308.336 135.57 307.94 132.278 310.252C133.59 312.586 133.007 314.627 130.278 316.773C127.57 314.69 129.757 312.565 130.32 310.523C129.745 310.403 129.153 310.4 128.577 310.514C128.002 310.629 127.456 310.858 126.971 311.189C126.487 311.52 126.074 311.945 125.758 312.439C125.442 312.933 125.229 313.486 125.132 314.065C124.82 316.169 126.528 318.565 128.84 318.732C131.09 318.877 133.382 318.627 135.632 318.482C136.882 318.377 138.132 317.919 139.778 318.482C137.632 321.044 134.611 321.127 132.34 322.44C132.382 323.482 133.799 324.232 132.736 325.169C131.632 326.169 130.757 325.148 129.986 324.544C128.32 323.232 126.653 321.919 125.174 320.44C123.301 318.774 122.131 316.457 121.903 313.961C121.812 312.724 121.509 311.512 121.007 310.377C120.34 308.836 120.34 307.523 121.695 306.419C121.32 305.794 121.111 305.315 120.757 304.919C118.965 302.61 117.583 300.009 116.674 297.232C115.57 294.377 115.715 291.732 117.674 289.294C118.174 288.669 118.715 288.044 119.007 287.315C119.486 286.196 119.815 285.02 119.986 283.815C120.34 280.377 118.653 277.836 116.195 275.752C112.32 272.502 108.695 269.044 106.611 264.273C106.507 264.044 106.111 263.919 105.84 263.732C105.611 264.086 105.34 264.294 105.32 264.523C104.924 268.377 104.382 272.232 104.236 276.127C103.945 283.982 105.445 291.607 107.611 299.127C110.07 307.669 113.632 315.752 117.778 323.565C123.34 334.023 128.965 344.44 134.695 354.815C135.84 356.857 137.403 358.752 139.028 360.44C143.153 364.648 148.445 366.107 154.111 366.127C158.32 366.127 162.528 366.002 166.715 365.586C172.861 364.961 179.007 364.065 185.132 363.232C188.945 362.711 192.736 362.044 196.549 361.565C200.924 361.023 204.465 363.086 207.424 365.94C210.757 369.19 213.778 372.752 216.736 376.357C221.32 381.877 225.007 388.023 228.278 394.419C229.32 396.461 229.736 396.502 231.34 395.044C234.049 392.523 236.757 390.002 239.549 387.544C240.945 386.315 241.382 385.044 240.945 383.107C239.728 377.664 239.134 372.1 239.174 366.523C239.215 363.252 239.299 359.982 239.549 356.711C239.861 352.044 240.174 347.336 240.799 342.711C242.998 326.704 245.513 310.743 248.34 294.836C250.153 284.565 252.132 274.336 253.924 264.065C255.174 256.836 256.382 249.607 257.299 242.336C258.007 236.648 258.445 230.877 258.611 225.148C258.84 218.232 258.674 211.294 258.653 204.357C258.653 202.752 258.736 201.127 258.445 199.565C257.861 196.607 258.236 196.336 255.07 195.607C250.897 194.641 246.675 193.897 242.424 193.377C239.382 193.002 238.111 192.273 237.82 189.419C237.695 188.398 237.299 187.377 236.965 186.377C236.778 185.857 236.465 185.377 236.007 184.502L235.486 190.002C235.299 192.002 234.882 192.419 232.84 192.398C231.695 192.398 230.549 192.232 229.424 192.232C219.507 192.232 209.59 192.065 199.715 192.898C197.736 193.065 196.111 192.586 195.007 190.752C194.174 189.377 193.174 188.127 192.215 186.877C190.903 185.127 190.424 184.94 188.424 185.627C184.361 187.044 180.34 188.502 176.299 190.002C171.239 192.045 166.502 194.809 162.236 198.211C160.23 199.785 157.948 200.972 155.507 201.711C154.82 201.919 154.049 201.877 152.861 201.982C153.278 200.607 153.361 199.607 153.84 198.857C155.174 196.669 156.653 194.586 158.111 192.482C158.59 191.794 159.132 191.169 159.632 190.502L159.32 190.023L155.132 190.794C152.09 191.627 148.965 192.252 146.028 193.336C142.945 194.44 140.486 193.815 137.986 191.836C132.11 187.167 126.963 181.648 122.715 175.461L120.778 172.711ZM299.778 359.44L296.715 361.315C292.132 364.107 287.549 366.857 282.986 369.69C281.049 370.898 279.153 372.19 277.361 373.607C275.59 375.065 274.778 376.961 275.861 379.273C276.84 381.357 277.799 383.44 278.924 385.398C279.903 387.065 281.507 388.273 283.361 388.461C285.653 388.669 288.111 388.711 290.361 388.211C294.882 387.169 298.111 383.94 301.361 380.773C302.257 379.998 302.907 378.977 303.229 377.836C303.551 376.696 303.532 375.486 303.174 374.357C302.215 370.607 301.528 366.752 300.715 362.961C300.486 361.877 300.153 360.815 299.778 359.44ZM294.424 309.252C291.924 315.315 290.153 321.69 287.653 328.211C284.507 337.232 281.528 346.336 278.59 355.773C279.34 355.565 279.715 355.565 279.986 355.398C285.424 352.065 290.861 348.648 296.34 345.315C297.465 344.627 297.82 343.69 297.695 342.44C297.445 339.732 297.195 336.982 296.986 334.252L295.57 315.794C295.403 313.648 295.153 311.502 294.965 309.336C294.778 309.336 294.611 309.294 294.424 309.252ZM358.611 139.877L360.674 145.815C362.34 150.627 363.986 155.461 365.674 160.69L377.757 201.357C381.653 214.482 385.507 227.648 389.382 240.794C391.757 248.752 394.278 256.669 396.528 264.669C398.028 270.023 399.153 275.482 400.403 281.315C401.32 285.607 402.215 289.919 403.049 294.648C403.757 296.857 403.528 299.357 404.653 301.419L405.174 301.294L403.757 293.752C402.965 289.461 402.153 285.169 401.403 280.461C401.09 279.002 400.799 277.523 400.445 276.065C398.465 267.815 396.757 259.482 394.403 251.336C390.32 237.065 385.799 222.919 381.528 208.711C378.09 197.273 374.82 185.794 371.361 174.377C369.924 169.648 368.236 165.002 366.653 159.898L364.215 152.898C363.445 150.669 362.653 148.398 361.82 146.19C360.986 143.982 360.07 141.815 359.174 139.648C358.986 139.718 358.799 139.787 358.611 139.857V139.877ZM129.695 298.002C128.382 297.982 127.299 298.294 126.903 299.732C128.119 300.667 129.6 301.194 131.133 301.239C132.667 301.284 134.176 300.844 135.445 299.982C133.55 299.26 131.632 298.6 129.695 298.002ZM108.965 249.586C108.424 249.023 107.778 248.586 107.403 249.627C107.153 250.294 107.257 251.086 107.195 251.982C108.903 251.211 108.903 251.211 108.965 249.586ZM110.257 224.815C109.889 224.878 109.538 225.014 109.223 225.214C108.908 225.414 108.637 225.675 108.424 225.982C108.03 226.678 107.849 227.475 107.903 228.273C108.007 231.44 108.111 234.648 108.445 237.794C108.669 239.369 109.133 240.901 109.82 242.336C111.09 245.169 113.09 245.815 115.82 244.44C116.965 243.877 117.07 243.315 116.34 242.148C115.405 240.708 114.508 239.242 113.653 237.752C113.34 236.336 112.278 235.023 112.965 233.44C113.799 231.565 111.382 231.023 111.424 229.482V226.544C111.361 225.752 111.299 224.732 110.257 224.815ZM109.903 204.648C106.474 204.589 103.1 205.506 100.174 207.294C98.5904 208.232 98.4237 208.752 99.1321 210.586C99.8404 212.398 100.59 214.19 101.528 215.877C102.861 218.315 103.403 218.482 105.903 217.482C108.099 216.505 110.513 216.125 112.903 216.377C117.111 216.836 120.34 219.211 123.403 221.877L125.32 223.482C125.465 223.357 125.611 223.211 125.778 223.107C125.382 220.919 125.049 218.398 122.674 217.607C119.403 216.502 115.924 216.044 112.09 215.169L107.09 215.065C112.09 211.544 116.507 214.148 121.403 215.252C120.09 212.857 118.215 212.19 116.611 211.232C114.903 210.19 113.07 209.315 111.403 208.232C110.153 207.461 108.903 206.565 109.903 204.648ZM323.09 211.419C318.299 211.211 314.195 213.086 310.424 215.815C309.715 216.357 309.174 217.169 308.236 218.252C310.049 218.794 311.361 219.211 313.07 219.607C313.986 219.294 314.903 218.982 315.778 218.648C322.153 216.273 328.486 216.252 334.611 219.294C337.236 220.607 339.549 220.127 342.236 219.19C341.82 218.544 341.611 218.065 341.299 217.711C338.758 215.007 335.533 213.041 331.965 212.023C329.049 211.107 326.049 211.544 323.09 211.419ZM166.465 135.065C166.277 135.981 166.292 136.926 166.507 137.836C168.174 144.523 169.757 151.232 171.549 157.877C173.715 165.94 177.174 173.502 181.049 180.857C181.465 181.627 182.32 182.523 183.09 182.669C184.916 182.901 186.768 182.527 188.361 181.607L178.528 164.107C173.736 154.773 170.09 144.94 166.465 135.065ZM216.611 10.3566C212.445 10.1899 208.174 10.4399 204.049 11.0649C199.132 11.7941 194.257 12.8774 189.465 14.2316C183.486 15.8982 177.611 17.9816 171.715 19.9191C170.882 20.1899 170.174 20.7107 169.424 21.1274C170.007 21.4191 170.465 21.5024 170.882 21.4191C176.861 20.0024 182.965 19.6482 189.07 19.5441C191.861 19.5024 194.674 19.7316 197.445 20.0649C201.403 20.5649 205.403 21.0649 209.32 21.9399C218.82 24.1066 227.528 28.1899 235.674 33.5232C245.34 39.8982 254.174 47.2732 261.861 55.9816C266.132 60.8149 270.09 65.8774 273.528 71.3774C277.07 77.0857 280.09 83.0649 282.882 89.2107C288.57 101.732 292.382 114.877 295.382 128.294C296.215 131.898 296.84 135.544 297.465 139.211C297.82 141.377 298.82 142.69 301.007 143.169C303.549 143.752 305.174 145.357 305.59 148.398C305.528 150.523 304.34 152.023 302.903 153.398C300.535 155.461 298.632 158.003 297.32 160.857C297.961 160.756 298.561 160.474 299.049 160.044C300.715 158.252 302.424 156.461 303.945 154.523C305.581 152.569 306.532 150.132 306.653 147.586C306.84 146.544 307.111 145.502 307.153 144.461C307.299 141.877 306.799 141.336 304.174 140.961C303.653 140.877 303.153 140.669 302.653 140.648C300.945 140.502 300.049 139.336 299.799 137.919C299.111 133.794 299.715 130.523 304.945 129.419C306.736 129.044 308.57 128.794 310.361 128.544C313.653 128.065 316.924 127.44 320.215 127.148C323.132 126.898 324.174 127.836 324.924 130.627C325.09 131.232 325.299 131.815 325.361 132.44C325.757 136.169 325.195 137.127 322.424 138.44C321.861 138.711 321.278 138.94 320.799 139.315C320.317 139.667 319.948 140.152 319.736 140.711C318.924 143.711 321.257 148.669 324.028 149.982L338.049 156.648C338.528 156.877 339.09 156.961 339.611 157.127L339.986 156.586C339.674 156.419 339.32 156.315 339.07 156.086C335.621 153.347 331.806 151.103 327.736 149.419C326.545 148.875 325.343 148.354 324.132 147.857C323.345 147.534 322.674 146.982 322.206 146.272C321.737 145.562 321.494 144.728 321.507 143.877C321.445 142.107 322.445 140.669 324.174 139.982L325.403 139.461C327.465 138.544 327.861 137.877 327.736 135.565C327.717 135.124 327.661 134.685 327.57 134.252C326.174 128.127 325.007 121.961 323.299 115.919C319.226 101.161 313.451 86.9264 306.09 73.5024C298.418 59.5599 288.652 46.8775 277.132 35.8982C269.922 28.9096 261.645 23.1147 252.611 18.7316C245.928 15.4303 238.796 13.128 231.445 11.8982C226.534 11.097 221.581 10.5823 216.611 10.3566ZM356.59 134.419C356.799 134.711 356.965 135.002 357.382 135.127L356.924 134.211L356.59 134.419ZM85.4862 81.6066C85.3037 81.7437 85.088 81.8299 84.8612 81.8566C84.6004 82.1442 84.3221 82.4156 84.0279 82.6691C83.8196 82.8774 83.6112 83.0857 83.0904 83.5024L75.5279 90.8774C73.6946 92.6482 71.9862 94.5857 69.9862 96.1482C64.0696 100.732 61.1321 107.19 58.6529 113.961C58.4694 114.431 58.419 114.943 58.5071 115.44C58.7779 116.586 59.1946 117.69 59.5904 118.94L61.1321 119.482C60.7779 120.648 60.5071 121.669 60.1529 122.648C58.9446 126.065 57.6946 129.461 56.5071 132.877C56.4029 133.19 56.6737 133.627 56.9029 134.482C58.5696 130.836 60.1946 127.607 61.5904 124.294C66.3404 112.961 71.6737 101.919 78.6529 91.7732C80.5279 89.0024 82.4446 86.2316 84.5487 83.4191C84.6321 83.2941 84.6946 83.1482 85.0071 82.7941C85.0279 82.4607 85.0696 82.1274 85.3196 81.9607L85.4862 81.6066ZM355.82 131.773C355.88 131.82 355.929 131.88 355.961 131.948C355.994 132.017 356.01 132.093 356.007 132.169C355.96 132.235 355.918 132.305 355.882 132.377C355.923 132.519 355.972 132.658 356.028 132.794L356.403 133.252C356.445 133.107 356.549 132.919 356.507 132.815C356.445 132.607 356.257 132.44 356.09 132.023C356 131.94 355.909 131.857 355.82 131.773ZM87.4862 93.3357C87.4237 93.4191 87.3196 93.5024 86.9237 93.6274C86.8196 93.8982 86.6946 94.1482 86.2779 94.6066C85.4752 95.8085 84.613 96.9697 83.6946 98.0857C82.6946 99.5441 81.2779 99.2316 79.9237 98.9399C77.1321 98.3566 75.1737 99.2732 73.9446 101.919C72.0904 105.815 70.0487 109.627 68.2571 113.586C67.2362 115.836 65.9654 118.086 65.7987 121.086C67.4862 121.148 69.0071 121.232 70.5487 121.252H75.2987C74.8492 123.114 74.2997 124.95 73.6529 126.752C73.4446 127.836 73.1946 128.898 72.9654 129.982L73.3821 130.065C73.7571 129.107 74.1529 128.148 74.7779 126.877C76.1529 123.919 77.4862 120.94 78.9446 118.002C79.3612 117.169 79.6529 115.919 81.3612 116.086C81.3612 116.982 81.4446 117.836 81.3612 118.669C81.2571 119.607 81.0071 120.544 80.7779 121.648C83.7154 122.544 82.5696 125.273 83.1737 127.252C85.2987 126.794 85.3404 123.19 88.3404 124.252V128.523L88.6946 128.565L97.8404 106.502C95.1321 106.502 92.7154 106.086 90.3821 107.19C89.8821 107.419 89.1737 107.169 88.1321 107.107C89.6946 103.982 91.0279 101.315 92.5279 98.4191C92.6571 98.141 92.8333 97.8873 93.0487 97.6691C93.0487 97.3566 93.0279 97.0441 93.2154 96.8774L93.3404 96.4607C93.2362 96.5857 93.1321 96.6899 92.7571 96.8149C92.6737 97.0649 92.5696 97.3149 92.2154 97.7524C92.0605 98.0384 91.8299 98.2763 91.5487 98.4399C88.9862 101.711 89.6737 101.857 86.1737 100.648C84.5279 100.086 84.5487 100.065 85.1946 97.6482C85.7779 96.6899 86.3612 95.7107 87.2362 94.5232C87.2362 94.1899 87.2154 93.8566 87.3821 93.6482L87.4862 93.3357ZM130.674 79.3774C130.611 79.5024 130.528 79.6066 130.111 79.7107C128.153 82.3149 126.07 84.8357 124.278 87.5649C121.049 92.5232 118.007 97.5857 114.882 102.627C111.965 107.294 107.695 110.294 102.903 112.648C102.549 112.815 102.07 112.773 101.257 112.877C101.507 111.648 101.59 110.607 101.945 109.69C103.366 106.02 104.958 102.419 106.715 98.8982L106.57 98.4816C106.355 98.6922 106.109 98.868 105.84 99.0024C105.257 100.044 104.695 101.086 103.903 102.419C98.4862 111.252 94.6737 119.44 94.6946 122.211C95.1946 122.294 95.6946 122.44 96.2154 122.482C99.9029 122.752 100.132 122.627 101.632 119.044C102.257 117.586 103.236 116.544 104.695 115.919L108.34 114.461C109.257 114.086 110.111 113.273 111.382 113.794C111.445 114.836 111.174 116.086 111.674 116.815C112.549 118.107 112.59 119.419 112.653 120.836C112.695 121.857 113.007 122.877 113.195 123.898C113.799 123.19 114.007 122.544 114.236 121.877C117.195 113.752 120.007 105.586 123.153 97.5024C125.236 92.1691 127.736 87.0024 130.028 81.7524C130.299 81.1274 130.299 80.3566 130.653 79.8357L130.674 79.3774ZM213.736 72.2941C213.736 73.2316 213.945 74.0441 214.174 74.8566C215.049 78.1899 216.132 81.4816 216.757 84.8566C217.257 87.6274 217.236 90.4816 217.34 93.3149C217.34 94.0024 216.945 94.7107 216.674 95.6066C214.715 94.3982 215.695 92.3149 214.465 91.1274H211.861C211.549 92.6274 211.653 94.2941 210.903 95.2941C209.528 97.0649 207.674 98.5024 205.986 100.023C205.09 100.815 204.361 100.398 203.84 99.5024L202.882 97.6899C201.528 98.4191 200.445 99.1274 199.299 99.6274C196.882 100.69 194.403 101.607 192.007 102.69C190.236 103.482 190.132 103.794 190.549 105.752C190.84 107.315 191.257 108.836 191.528 110.398C191.799 111.898 192.57 112.669 194.09 112.982C198.945 114.023 203.715 115.377 207.778 118.502C208.986 116.377 208.986 116.377 211.278 115.357C211.903 115.065 212.528 114.732 213.195 114.482C214.861 113.857 215.59 114.127 216.32 115.732C216.799 116.732 217.174 117.773 217.695 119.023C218.945 116.107 216.82 113.461 218.049 110.357C221.32 114.107 223.049 118.482 225.861 122.169C226.159 121.529 226.316 120.833 226.32 120.127C226.361 117.544 226.32 114.982 226.361 112.398C226.361 111.69 226.632 111.002 226.778 110.315L227.445 110.252C229.736 113.482 230.153 117.627 232.153 121.086C232.26 118.362 232.19 115.634 231.945 112.919C231.861 111.982 231.945 111.377 232.986 111.086C234.653 111.836 235.403 114.002 237.465 114.377C236.84 108.648 228.653 90.6899 220.84 80.3149C218.465 77.6691 216.674 74.4816 213.757 72.2732L213.736 72.2941ZM158.174 86.7941C157.778 87.5024 157.549 87.8357 157.403 88.1899C156.132 92.0441 154.799 95.8982 153.653 99.7732C153.007 101.961 151.84 103.294 149.59 103.732C147.715 104.127 145.882 104.815 144.007 105.252C143.215 105.44 142.153 105.565 141.549 105.19C141.049 104.857 141.028 103.752 140.799 102.982C139.465 104.565 139.09 104.794 137.257 103.961C134.486 102.669 131.799 101.148 129.07 99.7732C128.07 99.2524 127.132 98.4607 125.528 99.1482C124.632 101.648 123.632 104.357 122.674 107.107C120.611 112.94 120.861 112.148 124.653 116.544C125.611 117.544 126.778 117.169 127.861 117.023C128.986 116.836 130.07 116.398 131.195 116.273C133.903 116.002 136.611 114.607 138.84 115.961C143.09 114.627 146.903 113.419 150.736 112.252C151.778 111.94 152.59 112.357 153.111 113.377C153.57 114.252 153.82 115.315 154.82 115.898C155.611 114.732 154.549 113.232 156.132 112.19L159.049 117.211L158.174 86.7941ZM163.965 94.2524C161.965 94.0441 161.736 94.4607 161.674 96.5024C161.632 97.2941 161.611 98.1274 161.715 98.8982C162.34 103.065 163.778 106.94 165.34 110.773C165.382 110.898 165.59 110.982 165.799 111.086L167.424 110.044C168.507 110.794 169.111 111.877 170.611 111.877C174.882 111.836 179.153 112.169 183.445 112.127C185.507 112.107 186.736 113.002 187.715 114.627C188.09 115.252 188.215 116.232 189.549 116.002L187.882 107.794C186.84 103.732 186.111 99.5649 184.299 95.5232C183.111 96.7107 181.924 96.9399 180.549 96.4816C179.632 96.1976 178.69 96.0023 177.736 95.8982C173.153 95.3149 168.57 94.6691 163.986 94.2316L163.965 94.2524ZM377.59 58.2732C379.445 61.6691 380.82 64.8566 380.486 68.5024C380.153 72.0024 381.028 75.6274 379.57 79.2524C378.59 78.5649 377.736 77.5441 377.236 77.6899C374.799 78.4191 373.82 76.5024 372.507 75.2941C370.436 73.3659 368.448 71.3502 366.549 69.2524L364.382 66.8982C364.223 67.0307 364.063 67.1626 363.903 67.2941C364.632 68.2524 365.361 69.2316 366.195 70.5441C367.028 71.8774 367.945 73.1899 368.736 74.5649C369.445 75.7732 370.09 77.0232 369.382 78.8357C367.674 78.6274 365.965 78.4399 364.257 78.1691C363.007 77.9607 362.153 78.1691 361.674 79.6274C361.028 81.6691 360.903 81.6274 358.549 81.5024C358.965 82.3774 359.299 83.1691 359.736 83.9191C360.59 85.4607 360.361 86.7941 359.111 88.0024C357.861 89.2524 356.653 90.5441 355.403 91.7732C354.922 92.2885 354.302 92.6532 353.618 92.8233C352.934 92.9933 352.215 92.9615 351.549 92.7316C346.924 91.4607 342.236 90.3774 337.59 89.1066C336.924 88.9191 336.278 88.2732 335.799 87.6899C335.174 86.8566 334.715 85.8774 334.132 84.9816C333.215 83.5232 332.257 82.1066 331.299 80.6691C330.984 81.3525 330.883 82.1146 331.007 82.8566C331.257 85.5024 331.632 88.1274 331.736 90.7732C331.84 92.8566 331.236 93.2732 329.215 92.9399C327.049 92.5857 324.924 92.1066 322.757 91.7316C321.424 91.4816 320.028 91.1482 318.549 92.3566L320.236 96.6899C322.111 96.6899 323.695 96.4816 325.174 96.7316C328.84 97.3866 332.191 99.2231 334.715 101.961C336.34 103.69 337.924 105.461 339.736 107.377L340.111 107.273C340.028 107.148 339.945 107.002 339.903 106.44C340.195 105.273 338.611 103.982 340.278 102.732C340.924 103.357 341.611 103.919 342.111 104.607C343.32 106.232 344.424 107.919 345.632 109.961L347.486 112.898L347.986 112.627C345.019 106.142 342.054 99.6559 339.09 93.1691C340.236 93.3149 340.82 93.3149 341.34 93.5024C345.361 94.9607 349.361 96.4607 353.361 98.0024C354.903 98.5857 356.424 99.2524 357.924 99.9607C359.215 100.544 360.257 100.336 361.195 99.2732C362.236 98.1066 363.32 96.9399 364.403 95.7941C365.445 94.7316 366.382 94.8357 367.153 96.0857C367.486 96.6066 367.695 97.1899 367.986 97.7524C369.465 100.627 370.965 103.523 372.507 106.773L375.82 113.19L376.34 112.961C375.424 110.752 374.882 108.419 373.465 106.002C372.278 102.211 369.965 98.7941 369.174 94.6482C372.007 95.3566 376.715 101.44 380.986 109.898L382.174 111.44L382.549 111.211C382.149 110.345 381.788 109.462 381.465 108.565C380.507 105.544 379.445 102.523 378.632 99.4816C378.174 97.7524 377.882 95.8774 379.09 94.0649L381.361 95.2732L380.82 90.9607L381.382 90.6274C381.84 91.0441 382.424 91.3774 382.736 91.8774C384.257 94.1274 385.715 96.4607 387.215 98.7524C387.424 99.0857 387.82 99.3566 388.111 99.6482C387.361 95.1274 383.945 91.7316 383.34 86.6066L386.57 88.9399C386.861 85.4816 386.82 82.2941 387.445 79.2524C388.111 75.9607 386.965 73.0649 386.132 69.9816C386.632 70.0649 386.882 70.1066 387.278 70.5024C389.195 73.0857 391.09 75.6899 393.049 78.2316C393.465 78.7941 394.09 79.2107 394.486 80.0441L395.32 81.3566L395.715 81.0441C395.254 80.5404 394.881 79.9629 394.611 79.3357C392.27 75.9575 389.964 72.5545 387.695 69.1274C383.09 62.6482 380.132 59.3982 377.59 58.2732ZM240.715 65.0857C240.653 68.4399 242.632 70.8149 242.153 73.7316L234.486 75.5441C236.361 78.4399 235.153 80.4816 233.403 82.4399C232.361 83.6274 231.486 84.9816 230.424 86.1482C229.653 86.9816 229.465 87.7732 230.049 88.7732L233.382 94.5024C233.986 95.5024 234.882 95.8774 236.049 95.8357C237.632 95.7732 239.215 95.8357 240.799 95.8149C243.215 95.7524 245.299 96.2732 246.528 98.6691C246.653 98.9607 246.945 99.1691 247.445 99.7524C247.528 98.5232 247.382 97.7107 247.653 97.0441C247.986 96.2107 248.486 94.9816 249.153 94.7941C250.903 94.3149 252.757 94.2941 254.57 94.1691C254.84 94.1482 255.132 94.5441 255.403 94.7732L256.882 96.1274C257.278 93.8357 255.174 92.0024 256.382 89.6691L259.007 90.5024C258.465 87.9399 257.549 85.3982 257.528 82.8774C257.528 80.3149 258.59 77.8149 259.924 75.3774C262.153 76.6691 263.257 78.6274 264.799 80.6482C268.611 86.1691 272.299 91.7524 275.09 98.0232C278.528 96.3982 280.715 99.4399 283.57 99.8566C283.507 97.6482 280.799 90.6691 279.465 89.6066C278.859 89.1457 278.097 88.9368 277.34 89.0232C276.09 89.2524 274.861 89.8357 273.361 90.3357C272.84 89.5232 272.195 88.7107 271.757 87.7941C269.118 81.992 265.81 76.5176 261.903 71.4816C260.32 69.5232 258.57 67.6899 257.153 66.0649L249.007 72.0024C247.986 72.7316 247.049 72.6274 246.257 71.6482L242.736 67.3357C242.215 66.7107 241.632 66.1066 240.715 65.0857Z" fill="black"/>
</g>
<defs>
<clipPath id="clip0_191_166">
<rect width="500" height="500" fill="white"/>
</clipPath>
</defs>
</svg>
