<svg width="500" height="500" viewBox="0 0 500 500" fill="none" xmlns="http://www.w3.org/2000/svg">
<g clip-path="url(#clip0_191_148)">
<path fill-rule="evenodd" clip-rule="evenodd" d="M250 0C388.063 0 500 111.938 500 250C500 388.063 388.063 500 250 500C111.938 500 0 388.063 0 250C0 111.938 111.938 0 250 0ZM284.417 23.3958L284.208 23.375C295.313 25.3958 305.521 28.2292 313.583 31.7917C440.333 87.6875 467.667 223.75 346.938 330.5C331.287 344.338 310.78 351.392 289.929 350.111C269.077 348.829 249.588 339.317 235.75 323.667C228.115 315.157 222.495 305.038 219.307 294.059C216.119 283.081 215.444 271.525 217.333 260.25C177.042 272.75 148.688 308.271 143.917 352.958C139.667 392.792 150.667 437.208 186.75 470.333L191.854 471.729C210.417 476.583 229.917 479.167 250 479.167C376.563 479.167 479.167 376.563 479.167 250C479.167 135.146 394.667 40 284.417 23.3958ZM57.25 129.375C53.5417 134.979 50 140.542 46.625 146.104L41.7292 154.313L43.3542 150.833C28.4861 181.775 20.7882 215.672 20.8333 250C20.8333 352.479 88.0833 439.229 180.875 468.542L185.333 469.896C73.3958 386 59.1667 294.771 134.792 180.833C138.325 175.745 140.806 170.003 142.091 163.944C143.377 157.884 143.439 151.629 142.275 145.545C141.112 139.461 138.745 133.67 135.315 128.512C131.884 123.355 127.459 118.934 122.297 115.509C117.136 112.084 111.343 109.723 105.258 108.566C99.1723 107.409 92.9172 107.478 86.859 108.769C80.8007 110.061 75.0613 112.548 69.9769 116.087C64.8926 119.625 60.5658 124.143 57.25 129.375ZM268.854 21.625C360.688 49.3333 344.063 134.333 319.833 165.875C301.917 189.146 258.958 196.292 242.583 212.5C228.708 226.188 220.146 242.979 217.333 260.25C227.918 257.004 238.929 255.347 250 255.375C278.809 255.405 306.636 244.91 328.25 225.864C349.864 206.817 363.775 180.53 367.368 151.947C370.961 123.363 363.988 94.4512 347.761 70.6476C331.534 46.844 307.17 29.7883 279.25 22.6875C275.787 22.2434 272.314 21.8822 268.833 21.6042L268.854 21.625Z" fill="black"/>
</g>
<defs>
<clipPath id="clip0_191_148">
<rect width="500" height="500" fill="white"/>
</clipPath>
</defs>
</svg>
