<svg width="500" height="500" viewBox="0 0 500 500" fill="none" xmlns="http://www.w3.org/2000/svg">
<g clip-path="url(#clip0_189_105)">
<path fill-rule="evenodd" clip-rule="evenodd" d="M21.9181 352.401L220.647 405.562C220.379 419.691 220.796 433.824 221.897 447.912L345.98 481.096C309.177 496.285 269.278 502.462 229.605 499.115L225.855 498.782L224.938 498.698L223.188 498.511L221.23 498.302C220.139 498.171 219.049 498.032 217.959 497.886L215.73 497.594L213.438 497.261C211.211 496.937 208.989 496.583 206.772 496.199L205.897 496.032L204.334 495.761L202.105 495.344L200.647 495.032L198.709 494.636L197.147 494.303L195.168 493.886L193.147 493.407L191.188 492.949L189.772 492.595L187.938 492.136L186.063 491.637L184.084 491.116L182.376 490.637L180.105 490.012L178.813 489.595L177.063 489.074L175.126 488.491L172.939 487.783L171.73 487.387L170.064 486.845L168.189 486.2L166.814 485.7C166.508 485.597 166.202 485.492 165.897 485.387L164.48 484.866L162.376 484.096L161.189 483.637L159.522 483.012L157.709 482.283L155.876 481.554L154.23 480.888L152.251 480.054L150.939 479.471L149.626 478.909C149.341 478.785 149.056 478.66 148.772 478.534L147.397 477.909L145.251 476.93L144.168 476.43L142.168 475.472L140.876 474.847L139.126 474.013L137.334 473.097L135.397 472.118L134.314 471.555L132.168 470.41L130.98 469.785L129.772 469.118C129.452 468.939 129.132 468.758 128.814 468.576L126.855 467.472L125.605 466.764L124.543 466.139L123.043 465.285L121.335 464.243L119.397 463.077L118.314 462.41L116.564 461.306L115.293 460.494L113.647 459.452L112.189 458.473L111.085 457.744C110.708 457.496 110.333 457.246 109.96 456.994L109.043 456.369L108.126 455.744C107.848 455.551 107.57 455.357 107.293 455.161L106.105 454.328L104.522 453.203L103.085 452.161L101.543 451.037L100.376 450.162L98.7929 448.974L97.2096 447.745L95.4179 446.35L94.4804 445.62L93.1471 444.537L91.6054 443.287L89.7513 441.767L88.7929 440.954L87.8346 440.142C87.535 439.886 87.2364 439.629 86.9388 439.371L86.0013 438.538L84.7305 437.434L83.2721 436.142L81.8555 434.892L80.5638 433.684L79.168 432.393L78.0638 431.351L76.2305 429.601C75.5395 428.931 74.852 428.258 74.168 427.581L73.5638 426.997L72.7097 426.122L71.2722 424.664L70.2305 423.602L69.1888 422.498C67.9986 421.277 66.8318 420.034 65.6888 418.769L64.0222 416.936L62.7305 415.478L61.2514 413.811L60.3764 412.791L59.2722 411.499L58.0639 410.082L57.1055 408.916C56.9174 408.687 56.7299 408.458 56.543 408.228L55.6055 407.083L54.2305 405.375L53.3764 404.291L52.3347 402.958L51.9181 402.437C39.9977 386.988 29.929 370.194 21.9181 352.401ZM0.668214 231.705L237.188 294.969C233.229 308.76 229.967 322.742 227.418 336.861L452.771 397.146C441.575 412.474 428.681 426.485 414.334 438.913L13.689 331.716L13.3557 330.757L12.6265 328.591C12.2721 327.531 11.9249 326.468 11.5848 325.404L11.439 324.925C9.83545 319.827 8.3972 314.679 7.12653 309.489L6.50153 306.864L6.12653 305.197L5.68903 303.177L5.31403 301.49L4.93903 299.615L4.58487 297.865L4.20987 295.907C3.6682 292.97 3.16821 290.012 2.73071 287.033L2.37654 284.575L2.14738 282.846L1.87654 280.721C1.73705 279.604 1.60511 278.486 1.48071 277.367L1.37654 276.388C-0.179988 261.544 -0.417027 246.591 0.668214 231.705ZM33.8556 124.425L282.772 191.001C275.105 203.604 268.084 216.644 261.73 230.059L497.042 293.011C494.083 310.093 489.375 326.591 483.125 342.277L242.501 277.909L2.58487 213.749L2.89737 211.666L3.06404 210.645L3.27237 209.249L3.58487 207.437L3.95987 205.395C4.50154 202.312 5.12653 199.25 5.7932 196.188L6.37653 193.605L6.79319 191.834L7.29319 189.814C7.75152 187.939 8.23069 186.064 8.75152 184.231L9.33485 182.106L9.81402 180.377L10.439 178.294L10.9598 176.586L11.5848 174.586L12.1265 172.878L12.7723 170.899C18.1672 154.718 25.2185 139.137 33.8139 124.404L33.8556 124.425ZM126.397 32.7674L361.5 95.6359C349.094 106.895 337.352 118.866 326.334 131.486L489.313 175.086C494.875 192.834 498.521 211.416 500 230.601L43.8764 108.614L44.8139 107.26L45.3764 106.426L46.2097 105.281L47.1681 103.927L48.3139 102.344L49.4389 100.844L50.7722 99.0522L51.8139 97.6982L53.0014 96.1775L54.1472 94.7193L55.3972 93.1778L56.543 91.7405L57.8972 90.1365L59.0222 88.7616L60.3972 87.1576L61.5014 85.9078L63.0014 84.1996L64.1055 82.9497L65.5013 81.4082L66.6263 80.2L68.1472 78.5752L69.3555 77.3253L70.668 75.9296L74.168 72.3883L76.2513 70.3469L77.4805 69.1803L79.0638 67.7013C93.4219 54.247 109.308 42.5224 126.397 32.7674ZM250.355 0.0208312H252.376L254.084 0.0416623L255.522 0.0624935L256.647 0.104156L258.063 0.145818L259.022 0.166649L260.605 0.229143L261.584 0.270805L262.834 0.333299L263.959 0.374961L265.772 0.479117L267.959 0.624935L270.959 0.854078L272.792 0.999896L273.709 1.08322L275.313 1.24987L277.022 1.41652L278.001 1.52068L280.126 1.77065L281.167 1.89564L283.417 2.18727L285.105 2.39558L285.98 2.52057L287.334 2.72888L291.646 3.39548L293.105 3.64546L294.459 3.8746L297.376 4.41621L299.292 4.79117L301.584 5.24945L302.542 5.45777L304.105 5.79107L304.959 5.99938L306.251 6.27018L307.126 6.47849L308.48 6.79096L309.501 7.04094L310.98 7.39507L312.98 7.89501L315.313 8.51995L317.667 9.14488L320.021 9.81148L321.063 10.1239L322.521 10.5406L324.146 11.0405L325.667 11.5196L326.709 11.8529L327.751 12.1862L329.334 12.707L331.396 13.3944L333.521 14.1444L334.521 14.4985L335.855 14.9776L337.792 15.6859L340.084 16.5399L342.5 17.4774L344.584 18.3106L345.563 18.7272L346.813 19.2272L347.667 19.6021L348.98 20.1437L349.813 20.5187L351 21.0395L353.292 22.0394L355.375 22.9976L356.917 23.7267L358.48 24.4766L359.73 25.0599L361.646 26.0181L363.542 26.9555L365.667 28.0388L366.771 28.622L367.792 29.1636L368.75 29.6636L370 30.351L370.855 30.8093L371.938 31.4134L373.771 32.455L375.98 33.7048L377.792 34.7672L378.98 35.4755L380.084 36.1421L382.084 37.3711L383.917 38.5168L385.959 39.8084L386.709 40.3083L388.042 41.1624L389.792 42.3289L390.625 42.8914L391.917 43.7663L393.209 44.662L393.688 45.0162C394.813 45.7869 395.938 46.5785 397.042 47.3909L398.771 48.6408L400.125 49.6407L401.292 50.5364L403.084 51.8904L404.792 53.2236L405.625 53.8486L406.667 54.7027L408.459 56.14L410.104 57.494L411.875 58.973C426.709 71.4717 440.063 85.6994 451.646 101.281L150.459 20.727L151.751 20.1646L153.105 19.5813L154.793 18.873L156.584 18.144C158.939 17.2065 161.314 16.2691 163.689 15.4151L165.689 14.686L167.626 13.9985L169.376 13.3736L171.376 12.7278C173.189 12.1029 175.043 11.5196 176.876 10.9572L178.772 10.3948L180.563 9.87398L182.688 9.24904L184.459 8.76992L186.543 8.22831L188.334 7.72836L190.209 7.24925L192.105 6.79096L194.084 6.33268L195.959 5.91605L198.001 5.4786L199.897 5.06197L201.876 4.68701L203.793 4.31205L205.876 3.93709L207.772 3.60379L209.813 3.24966L211.73 2.95803L213.751 2.64556L215.668 2.37475L217.793 2.10395L219.688 1.85397L221.876 1.604L223.751 1.39569L225.938 1.18738C227.876 0.979065 229.813 0.812416 231.772 0.687429L233.98 0.520779L235.855 0.416623L238.147 0.291636L240.084 0.208312L242.167 0.124987L244.188 0.0833247L246.251 0.0416623L250.355 0V0.0208312Z" fill="black"/>
</g>
<defs>
<clipPath id="clip0_189_105">
<rect width="500" height="500" fill="white"/>
</clipPath>
</defs>
</svg>
