<svg width="500" height="500" viewBox="0 0 500 500" fill="none" xmlns="http://www.w3.org/2000/svg">
<mask id="mask0_160_217" style="mask-type:luminance" maskUnits="userSpaceOnUse" x="0" y="4" width="500" height="496">
<path d="M500 4H0V499.537H500V4Z" fill="white"/>
</mask>
<g mask="url(#mask0_160_217)">
<path d="M191.772 184.375V137.298C191.772 133.334 193.261 130.359 196.728 128.379L291.378 73.8704C304.262 66.4376 319.624 62.9707 335.479 62.9707C394.942 62.9707 432.606 109.057 432.606 158.113C432.606 161.581 432.606 165.546 432.109 169.51L333.992 112.027C328.046 108.559 322.098 108.559 316.152 112.027L191.772 184.375ZM412.782 367.725V255.236C412.782 248.296 409.807 243.341 403.862 239.873L279.483 167.525L320.117 144.233C323.585 142.254 326.559 142.254 330.027 144.233L424.677 198.743C451.933 214.602 470.266 248.296 470.266 281C470.266 318.66 447.968 353.348 412.782 367.721V367.725ZM162.536 268.618L121.902 244.834C118.435 242.853 116.947 239.879 116.947 235.914V126.897C116.947 73.8745 157.581 33.7332 212.587 33.7332C233.402 33.7332 252.724 40.6733 269.081 53.0603L171.46 109.554C165.515 113.021 162.541 117.977 162.541 124.916V268.622L162.536 268.618ZM249.999 319.162L191.772 286.457V217.084L249.999 184.38L308.222 217.084V286.457L249.999 319.162ZM287.412 469.807C266.598 469.807 247.276 462.868 230.919 450.48L328.539 393.987C334.484 390.52 337.459 385.565 337.459 378.625V234.919L378.591 258.704C382.058 260.684 383.546 263.658 383.546 267.623V376.64C383.546 429.662 342.414 469.803 287.412 469.803V469.807ZM169.969 359.303L75.3182 304.794C48.0616 288.935 29.7291 255.241 29.7291 222.536C29.7291 184.38 52.5242 150.188 87.7052 135.816V248.798C87.7052 255.738 90.6806 260.693 96.6251 264.16L220.512 336.011L179.878 359.303C176.411 361.283 173.436 361.283 169.969 359.303ZM164.521 440.571C108.525 440.571 67.3939 398.45 67.3939 346.418C67.3939 342.453 67.8906 338.489 68.3832 334.524L166.004 391.017C171.949 394.485 177.898 394.485 183.843 391.017L308.222 319.167V366.242C308.222 370.208 306.735 373.182 303.267 375.162L208.618 429.671C195.733 437.103 180.371 440.571 164.516 440.571H164.521ZM287.412 499.537C347.373 499.537 397.42 456.923 408.822 400.43C464.321 386.058 500 334.026 500 281.005C500 246.316 485.135 212.622 458.376 188.34C460.853 177.932 462.34 167.525 462.34 157.123C462.34 86.2625 404.857 33.2364 338.453 33.2364C325.077 33.2364 312.192 35.2162 299.308 39.6788C277.005 17.8741 246.282 4 212.587 4C152.627 4 102.58 46.6138 91.1784 103.107C35.6788 117.479 0 169.51 0 222.531C0 257.221 14.8645 290.915 41.6244 315.197C39.1468 325.604 37.6596 336.011 37.6596 346.413C37.6596 417.274 95.1431 470.3 161.546 470.3C174.923 470.3 187.808 468.32 200.692 463.858C222.99 485.662 253.713 499.537 287.412 499.537Z" fill="white"/>
</g>
</svg>
