<svg width="500" height="500" viewBox="0 0 500 500" fill="none" xmlns="http://www.w3.org/2000/svg">
<path d="M494.754 96.3329C489.457 93.7356 487.178 98.6852 484.082 101.198C483.021 102.008 482.124 103.061 481.23 104.033C473.489 112.306 464.444 117.74 452.629 117.091C435.357 116.119 420.605 121.552 407.569 134.77C404.799 118.47 395.592 108.734 381.578 102.493C374.245 99.2494 366.83 96.0031 361.696 88.9477C358.111 83.9213 357.133 78.3241 355.341 72.809C354.201 69.4859 353.057 66.078 349.228 65.5085C345.072 64.8595 343.44 68.3455 341.813 71.2686C335.294 83.1915 332.768 96.3289 333.015 109.628C333.587 139.557 346.215 163.397 371.313 180.351C374.164 182.298 374.896 184.243 374.002 187.082C372.291 192.923 370.254 198.598 368.461 204.439C367.32 208.17 365.606 208.98 361.615 207.359C347.846 201.603 335.947 193.084 325.435 182.786C307.59 165.51 291.458 146.451 271.331 131.527C266.673 128.08 261.889 124.807 256.989 121.714C236.456 101.763 259.679 85.3782 265.056 83.4339C270.678 81.4048 267.013 74.4315 248.839 74.5123C230.668 74.5931 214.045 80.675 192.862 88.7861C189.764 90.0046 186.507 90.896 183.164 91.6231C163.934 87.9728 143.971 87.1623 123.111 89.5132C83.8347 93.8906 52.4665 112.465 29.4073 144.177C1.70445 182.302 -4.8162 225.608 3.16981 270.783C11.5622 318.388 35.8432 357.806 73.1629 388.626C111.867 420.576 156.44 436.232 207.282 433.23C238.163 431.448 272.551 427.313 311.336 394.463C321.114 399.328 331.38 401.276 348.411 402.736C361.53 403.954 374.16 402.087 383.938 400.062C399.258 396.818 398.199 382.624 392.656 380.03C347.762 359.108 357.617 367.623 348.656 360.729C371.47 333.723 405.858 305.661 419.301 214.743C420.36 207.527 419.462 202.986 419.301 197.145C419.221 193.579 420.033 192.199 424.109 191.793C435.353 190.493 446.271 187.415 456.294 181.898C485.383 166.001 497.118 139.887 499.888 108.582C500.295 103.798 499.808 98.8494 494.754 96.3369V96.3329ZM241.264 378.078C197.75 343.857 176.647 332.58 167.929 333.067C159.782 333.555 161.247 342.882 163.04 348.964C164.913 354.966 167.36 359.101 170.781 364.373C173.144 367.861 174.774 373.049 168.419 376.946C154.405 385.621 130.041 374.025 128.898 373.456C100.543 356.749 76.8309 334.69 60.1256 304.521C43.9934 275.483 34.6214 244.344 33.0753 211.09C32.6676 203.063 35.0318 200.22 43.0152 198.763C53.5255 196.815 64.3628 196.409 74.8745 197.949C119.281 204.439 157.088 224.309 188.786 255.775C206.876 273.697 220.565 295.111 234.663 316.033C249.656 338.255 265.789 359.424 286.323 376.78C293.576 382.862 299.359 387.486 304.901 390.894C288.196 392.757 260.328 393.164 241.264 378.078ZM262.309 242.295C262.999 239.499 265.514 237.45 268.56 237.45C269.311 237.452 270.056 237.589 270.759 237.854C271.656 238.18 272.47 238.667 273.123 239.394C274.263 240.532 274.915 242.153 274.915 243.855C274.915 247.424 272.064 250.262 268.479 250.262C266.966 250.276 265.499 249.743 264.347 248.761C263.195 247.78 262.435 246.415 262.207 244.919C262.066 244.046 262.101 243.154 262.309 242.295ZM324.8 277.943C321.35 279.262 317.916 280.298 314.598 280.433C308.404 280.756 301.642 278.242 297.977 275.16C292.274 270.376 288.2 267.702 286.488 259.345C285.755 255.775 286.162 250.262 286.814 247.099C288.281 240.286 286.65 235.906 281.845 231.932C277.935 228.689 272.961 227.797 267.504 227.797C265.466 227.797 263.593 226.906 262.207 226.176C259.925 225.042 258.052 222.203 259.845 218.714C260.416 217.58 263.187 214.821 263.84 214.337C271.252 210.118 279.81 211.497 287.712 214.66C295.045 217.661 300.587 223.175 308.572 230.96C316.72 240.366 318.186 242.964 322.833 250.019C326.501 255.533 329.84 261.212 332.122 267.698C333.283 271.09 332.216 273.976 329.024 276.012C327.725 276.84 326.232 277.395 324.8 277.943Z" fill="white"/>
</svg>
