<svg width="500" height="500" viewBox="0 0 500 500" fill="none" xmlns="http://www.w3.org/2000/svg">
<path fill-rule="evenodd" clip-rule="evenodd" d="M193.125 318.315L359.333 195.461C367.479 189.419 379.125 191.773 383.021 201.127C403.438 250.481 394.313 309.773 353.646 350.481C313 391.19 256.417 400.106 204.708 379.773L148.229 405.961C229.25 461.398 327.625 447.69 389.104 386.107C437.875 337.273 452.979 270.711 438.854 210.69L438.979 210.836C418.5 122.669 444.021 87.419 496.271 15.3565C497.521 13.6482 498.771 11.9398 500 10.1898L431.229 79.044V78.8357L193.063 318.356M158.813 348.169C100.646 292.544 110.687 206.481 160.292 156.836C196.979 120.106 257.104 105.106 309.583 127.148L365.938 101.106C354.224 92.4902 341.409 85.4833 327.833 80.2732C293.704 66.3044 256.206 62.7397 220.056 70.0275C183.906 77.3154 150.718 95.1303 124.667 121.231C71.8958 174.065 55.2917 255.315 83.7917 324.648C105.083 376.461 70.1875 413.106 35.0417 450.106C22.5625 463.231 10.0625 476.336 0 490.211L158.75 348.231" fill="black"/>
</svg>
