<svg width="500" height="500" viewBox="0 0 500 500" fill="none" xmlns="http://www.w3.org/2000/svg">
<path fill-rule="evenodd" clip-rule="evenodd" d="M250.584 178.042L250.417 178.146L313.542 287.521C322.301 300.908 326.957 316.564 326.938 332.563C326.938 348.271 322.521 362.979 314.854 375.521L443.459 334.042L242.292 0L193.834 80.6667L250.584 178.042ZM142.438 500L243.48 415.563H243.209C196.979 415.563 159.521 378.396 159.521 332.563C159.521 316.021 164.417 300.604 172.854 287.646L232.542 183.979L182.938 98.8333L41.667 334.042L142.292 500H142.438ZM286.188 403.792H286.167L171.292 500H341.75L428.167 358.979L286.188 403.792Z" fill="white"/>
</svg>
