<svg width="500" height="500" viewBox="0 0 500 500" fill="none" xmlns="http://www.w3.org/2000/svg">
<path d="M358.845 83.9844C317.847 83.9844 285.797 114.863 256.785 154.09C216.918 103.327 183.576 83.9844 143.676 83.9844C62.3281 83.9844 0 189.851 0 301.903C0 372.022 33.9229 416.248 90.7422 416.248C131.638 416.248 161.05 396.968 213.336 305.57C213.336 305.57 235.132 267.08 250.126 240.566C255.747 249.654 261.281 258.796 266.728 267.989L291.246 309.236C339.009 389.161 365.62 416.248 413.84 416.248C469.194 416.248 500 371.418 500 299.842C500 182.518 436.267 83.9844 358.845 83.9844ZM173.465 280.822C131.072 347.274 116.407 362.17 92.8047 362.17C68.5156 362.17 54.0791 340.845 54.0791 302.82C54.0791 221.473 94.6377 138.292 142.988 138.292C169.171 138.292 191.051 153.413 224.566 201.394C192.742 250.207 173.465 280.822 173.465 280.822ZM333.459 272.456L304.144 223.564C296.21 210.662 288.586 198.785 281.271 187.936C307.692 147.155 329.487 126.835 355.408 126.835C409.257 126.835 452.337 206.12 452.337 303.508C452.337 340.63 440.179 362.17 414.985 362.17C390.84 362.17 379.306 346.223 333.459 272.456Z" fill="white"/>
</svg>
