<svg width="500" height="500" viewBox="0 0 500 500" fill="none" xmlns="http://www.w3.org/2000/svg">
<path fill-rule="evenodd" clip-rule="evenodd" d="M339.125 42C363.208 42 382.729 61.3125 382.729 85.125V345.562C382.896 349.553 384.606 353.322 387.497 356.078C390.388 358.833 394.236 360.358 398.229 360.333C402.219 360.353 406.062 358.825 408.948 356.07C411.835 353.316 413.541 349.549 413.708 345.562V189.896C413.738 184.26 414.878 178.685 417.063 173.49C419.247 168.294 422.434 163.58 426.44 159.616C430.447 155.652 435.195 152.516 440.413 150.387C445.632 148.258 451.218 147.178 456.854 147.208C462.492 147.178 468.08 148.259 473.3 150.389C478.52 152.52 483.269 155.657 487.275 159.623C491.282 163.59 494.468 168.306 496.652 173.504C498.835 178.702 499.973 184.279 500 189.917V326.604C499.978 330.187 498.535 333.614 495.988 336.133C493.442 338.653 489.999 340.058 486.417 340.042C484.641 340.053 482.881 339.714 481.236 339.044C479.591 338.375 478.095 337.388 476.832 336.141C475.568 334.893 474.563 333.408 473.874 331.772C473.184 330.136 472.823 328.38 472.813 326.604V189.917C472.802 187.832 472.38 185.77 471.572 183.848C470.764 181.926 469.586 180.182 468.104 178.716C466.622 177.249 464.866 176.089 462.936 175.301C461.005 174.514 458.939 174.114 456.854 174.125C454.769 174.114 452.703 174.514 450.773 175.301C448.842 176.089 447.086 177.249 445.604 178.716C444.123 180.182 442.944 181.926 442.136 183.848C441.328 185.77 440.907 187.832 440.896 189.917V345.583C440.866 351.156 439.738 356.669 437.578 361.806C435.417 366.943 432.266 371.605 428.304 375.524C424.342 379.444 419.647 382.544 414.487 384.649C409.327 386.754 403.802 387.822 398.229 387.792C392.656 387.822 387.132 386.754 381.972 384.649C376.811 382.544 372.116 379.444 368.154 375.524C364.192 371.605 361.041 366.943 358.88 361.806C356.72 356.669 355.593 351.156 355.562 345.583V85.1667C355.39 80.935 353.582 76.9354 350.521 74.0094C347.459 71.0835 343.381 69.4595 339.146 69.4792C334.911 69.4538 330.831 71.0726 327.765 73.9947C324.699 76.9167 322.886 80.9143 322.708 85.1458L322.688 416.479C322.621 427.731 318.09 438.495 310.089 446.407C302.088 454.318 291.272 458.728 280.021 458.667C274.448 458.697 268.923 457.629 263.763 455.524C258.603 453.419 253.908 450.319 249.946 446.399C245.984 442.48 242.833 437.818 240.672 432.681C238.512 427.544 237.384 422.031 237.354 416.458V376.167C237.354 368.75 243.438 362.729 250.938 362.729C258.438 362.729 264.521 368.75 264.521 376.167V416.458C264.521 421.938 267.479 427 272.271 429.75C277.063 432.479 282.979 432.479 287.771 429.75C290.122 428.417 292.078 426.485 293.439 424.15C294.801 421.815 295.519 419.161 295.521 416.458V85.125C295.521 61.3125 315.042 42 339.125 42ZM220.917 42C245 42 264.521 61.3125 264.521 85.125V325.188C264.513 326.962 264.155 328.718 263.467 330.354C262.78 331.99 261.777 333.475 260.515 334.723C259.254 335.971 257.758 336.958 256.115 337.627C254.471 338.297 252.712 338.636 250.938 338.625C249.163 338.636 247.404 338.297 245.76 337.627C244.117 336.958 242.621 335.971 241.36 334.723C240.098 333.475 239.095 331.99 238.408 330.354C237.72 328.718 237.362 326.962 237.354 325.188V85.125C237.327 80.7912 235.58 76.6456 232.498 73.5987C229.416 70.5518 225.25 68.8528 220.917 68.875C216.583 68.8528 212.417 70.5518 209.335 73.5987C206.253 76.6456 204.507 80.7912 204.479 85.125V377.063C204.413 388.438 199.834 399.321 191.747 407.321C183.661 415.322 172.729 419.785 161.354 419.729C149.976 419.79 139.038 415.33 130.948 407.329C122.857 399.328 118.274 388.441 118.208 377.063V189.917C118.197 187.832 117.776 185.77 116.968 183.848C116.16 181.926 114.982 180.182 113.5 178.716C112.018 177.249 110.262 176.089 108.331 175.301C106.401 174.514 104.335 174.114 102.25 174.125C100.165 174.114 98.0988 174.514 96.1685 175.301C94.2383 176.089 92.4821 177.249 91.0002 178.716C89.5183 180.182 88.3398 181.926 87.5319 183.848C86.724 185.77 86.3026 187.832 86.2917 189.917V269.083C86.2617 274.719 85.1218 280.294 82.9373 285.489C80.7528 290.685 77.5663 295.399 73.5598 299.363C69.5533 303.327 64.8053 306.463 59.5869 308.592C54.3684 310.721 48.7818 311.801 43.1458 311.771C37.5099 311.801 31.9232 310.721 26.7048 308.592C21.4864 306.463 16.7383 303.327 12.7319 299.363C8.72539 295.399 5.53891 290.685 3.35437 285.489C1.16983 280.294 0.0300144 274.719 0 269.083L0 240.375C0 232.938 6.08333 226.917 13.5833 226.917C21.0833 226.917 27.1875 232.958 27.1875 240.375V269.083C27.1875 277.792 34.3333 284.854 43.1458 284.854C51.9583 284.854 59.1042 277.792 59.1042 269.083V189.896C59.1703 178.521 63.7497 167.637 71.836 159.637C79.9223 151.637 90.8541 147.174 102.229 147.229C113.608 147.168 124.545 151.629 132.636 159.63C140.727 167.631 145.309 178.517 145.375 189.896V377.063C145.375 385.792 152.521 392.854 161.354 392.854C170.167 392.854 177.312 385.792 177.312 377.063V85.125C177.312 61.3125 196.833 42 220.917 42Z" fill="black"/>
</svg>
