<svg width="500" height="500" viewBox="0 0 500 500" fill="none" xmlns="http://www.w3.org/2000/svg">
<g clip-path="url(#clip0_189_72)">
<path d="M142.782 73.375H71.3545V144.138H142.782V73.375Z" fill="black"/>
<path d="M428.524 73.375H357.097V144.138H428.524V73.375Z" fill="black"/>
<path d="M214.209 144.13H71.3545V214.894H214.209V144.13Z" fill="black"/>
<path d="M428.529 144.13H285.675V214.894H428.529V144.13Z" fill="black"/>
<path d="M428.534 214.885H71.3545V285.645H428.534V214.885Z" fill="black"/>
<path d="M142.782 285.666H71.3545V356.429H142.782V285.666Z" fill="black"/>
<path d="M285.654 285.666H214.227V356.429H285.654V285.666Z" fill="black"/>
<path d="M428.524 285.666H357.097V356.429H428.524V285.666Z" fill="black"/>
<path d="M214.255 356.474H-0.0693359V427.238H214.255V356.474Z" fill="black"/>
<path d="M500 356.474H285.675V427.238H500V356.474Z" fill="black"/>
</g>
<defs>
<clipPath id="clip0_189_72">
<rect width="500" height="500" fill="white"/>
</clipPath>
</defs>
</svg>
