<svg width="500" height="500" viewBox="0 0 500 500" fill="none" xmlns="http://www.w3.org/2000/svg">
<path d="M51.085 227.431C51.085 227.431 96.2921 160.732 186.556 153.831V129.633C86.5773 137.662 0 222.339 0 222.339C0 222.339 49.0359 364.091 186.556 377.072V351.351C85.6371 338.655 51.085 227.431 51.085 227.431ZM186.556 300.198V323.756C110.284 310.156 89.1125 230.872 89.1125 230.872C89.1125 230.872 125.734 190.304 186.556 183.725V209.573C186.509 209.573 186.477 209.559 186.439 209.559C154.516 205.728 129.579 235.549 129.579 235.549C129.579 235.549 143.556 285.75 186.556 300.198ZM186.556 85V129.633C189.491 129.408 192.425 129.217 195.376 129.116C309.041 125.285 383.101 222.339 383.101 222.339C383.101 222.339 298.041 325.77 209.422 325.77C201.301 325.77 193.697 325.017 186.556 323.751V351.351C192.872 352.163 199.233 352.573 205.601 352.58C288.067 352.58 347.703 310.465 405.45 260.619C415.024 268.287 454.22 286.941 462.278 295.105C407.372 341.076 279.411 378.131 206.865 378.131C199.872 378.131 193.157 377.709 186.556 377.072V415.853H500V85H186.556ZM186.556 183.725V153.831C189.46 153.628 192.387 153.474 195.376 153.379C277.112 150.812 330.737 223.618 330.737 223.618C330.737 223.618 272.818 304.057 210.716 304.057C201.779 304.057 193.765 302.62 186.554 300.196V209.571C218.374 213.416 224.778 227.471 243.908 259.362L286.458 223.486C286.458 223.486 255.399 182.753 203.042 182.753C197.349 182.75 191.903 183.152 186.556 183.725Z" fill="white"/>
</svg>
