<svg width="500" height="500" viewBox="0 0 500 500" fill="none" xmlns="http://www.w3.org/2000/svg">
<path d="M347.101 236.217C346.559 236.236 345.89 236.259 345.016 236.259L344.966 236.19C342.51 236.746 339.457 236.546 336.334 236.341C327.075 235.733 317.199 235.084 320.474 254.023C321.204 258.195 316.145 259.22 312.791 259.394C303.266 259.915 293.708 260.124 284.164 259.933C282.358 259.903 280.51 258.383 278.842 257.009C278.555 256.771 278.27 256.538 277.993 256.317C277.697 256.074 278.809 252.928 279.385 252.893C288.694 252.35 292.07 246.037 295.436 239.742C297.132 236.575 298.824 233.413 301.266 230.992C323.377 209.074 345.956 187.573 371.784 169.914C374.304 168.193 377.382 166.611 379.467 169.601C381.074 171.91 379.57 173.219 378.026 174.562C377.352 175.15 376.669 175.744 376.234 176.432C374.675 178.906 371.906 180.73 369.157 182.544C363.753 186.106 358.407 189.629 362.381 197.967C365.827 205.187 362.744 206.468 358.003 208.437L357.81 208.518C355.782 209.368 353.705 210.14 351.634 210.912C347.22 212.554 342.814 214.194 338.865 216.583C334.902 218.982 333.007 223.657 339.49 226.421C353.656 232.452 390.331 222.823 397.491 209.543C404.184 197.118 414.184 187.902 424.177 178.693C429.785 173.525 435.391 168.36 440.408 162.631C451.227 150.289 463.894 139.568 476.566 128.842C482.866 123.509 489.169 118.176 495.245 112.641C499.817 108.47 501.711 102.977 498.132 96.9804C494.568 91.0185 488.519 90.219 482.836 91.5573C445.378 100.37 409.19 112.259 377.05 134.455C325.739 169.896 274.343 205.215 222.529 239.909C204.869 251.746 194.179 245.958 188.287 225.465C175.199 179.96 156.01 140.278 100.875 134.107C80.7301 131.848 65.9558 144.467 68.8757 164.49C70.3531 174.641 69.0148 184.201 64.1307 193.726C63.0538 195.829 61.9666 197.933 60.8783 200.039C53.3578 214.592 45.7722 229.271 41.0653 244.759C40.6715 246.054 40.2204 247.417 39.7555 248.822C35.5592 261.502 30.2246 277.622 55.6831 278.514C56.726 278.548 58.725 281.173 58.4816 282.146C57.9255 284.458 56.7954 287.204 54.9878 288.543C30.5841 306.533 10.5258 328.311 1.90449 357.773C-2.4583 372.652 0.427084 388.104 13.133 399.628C22.2236 407.867 33.8346 412.646 44.0201 405.713C53.3107 399.388 63.506 395.145 73.6802 390.911C82.6359 387.183 91.5752 383.463 99.8672 378.336C101.866 377.099 104.294 375.968 106.751 374.823C113.545 371.662 120.56 368.393 119.334 362.483C117.405 353.221 107.619 344.634 99.4673 337.888C91.385 331.198 70.7876 286.266 73.2385 275.472C76.6704 260.356 84.397 247.269 92.1314 234.17C98.7338 222.987 105.342 211.794 109.288 199.323C110.922 194.178 117.179 191.362 123.211 193.413C127.304 194.8 126.607 198.558 125.958 202.058C125.94 202.155 125.922 202.251 125.905 202.348C123.459 215.802 121.061 229.272 118.662 242.742C117.463 249.475 116.264 256.208 115.059 262.94C114.294 267.25 115.632 270.692 120.099 271.561C128.703 273.247 128.512 277.123 124.636 283.78C120.516 290.837 119.943 299.458 124.549 305.976C129.172 312.529 136.907 313.902 144.764 309.974C149.665 307.541 153.472 309.713 153.42 314.65C153.107 341.019 164.144 335.073 177.58 323.567C178.816 322.507 180.5 321.921 182.126 321.355C182.421 321.252 182.715 321.15 183.003 321.046C184.278 320.591 185.554 320.139 186.83 319.686C212.122 310.712 237.38 301.75 251.659 275.854C252.763 273.831 256.383 272.851 259.201 272.089C259.361 272.046 259.519 272.003 259.674 271.961C276.002 267.523 292.673 267.457 309.334 267.391C321.845 267.341 334.349 267.292 346.703 265.39C358.888 263.513 372.166 256.404 372.271 244.637C372.368 235.15 365.105 235.739 357.851 236.328C354.712 236.583 351.573 236.838 349.032 236.276C348.517 236.169 347.975 236.188 347.101 236.217Z" fill="white"/>
<path d="M155.175 369.071C152.151 389.199 159.834 406.423 191.277 406.199H191.26C218.114 405.104 248.498 388.851 278.185 368.064C297.79 354.333 314.738 339.852 325.723 318.456C333.807 302.726 329.65 290.107 317.468 279.07C312.097 274.203 306.969 273.664 300.954 279.539C279.609 300.432 253.034 311.834 225.744 323.306C218.791 326.231 210.87 327.691 202.894 329.163C181.641 333.082 159.991 337.072 155.175 369.071Z" fill="white"/>
</svg>
