<svg width="500" height="500" viewBox="0 0 500 500" fill="none" xmlns="http://www.w3.org/2000/svg">
<g clip-path="url(#clip0_189_70)">
<path fill-rule="evenodd" clip-rule="evenodd" d="M263.738 7.7372C272.669 23.4187 281.555 39.1456 290.419 54.8952C290.777 55.525 291.296 56.0484 291.923 56.4118C292.55 56.7752 293.262 56.9655 293.987 56.9633H420.166C424.12 56.9633 427.484 59.4633 430.302 64.395L463.347 122.803C467.665 130.462 468.801 133.666 463.892 141.825C457.983 151.597 452.233 161.461 446.62 171.37L438.279 186.324C435.87 190.778 433.211 192.687 437.37 197.96L497.641 303.344C501.55 310.185 500.164 314.571 496.664 320.844C486.732 338.684 476.619 356.388 466.324 374.024C462.71 380.206 458.324 382.547 450.87 382.433C433.211 382.069 415.598 382.206 397.985 382.797C397.607 382.816 397.24 382.93 396.919 383.129C396.597 383.328 396.33 383.604 396.144 383.933C375.822 419.938 355.33 455.847 334.668 491.658C330.827 498.317 326.032 499.908 318.191 499.93C295.532 499.999 272.692 500.021 249.624 499.976C247.477 499.97 245.369 499.397 243.513 498.316C241.658 497.234 240.12 495.683 239.056 493.817L208.716 441.023C208.54 440.677 208.269 440.389 207.935 440.192C207.601 439.995 207.218 439.897 206.83 439.909H90.5144C84.0372 440.591 77.9465 439.886 72.2193 437.818L35.7884 374.865C34.7109 373.001 34.1399 370.888 34.1319 368.735C34.1239 366.582 34.6793 364.464 35.7429 362.593L63.1741 314.412C63.5648 313.731 63.7704 312.959 63.7704 312.173C63.7704 311.388 63.5648 310.616 63.1741 309.935C48.8851 285.196 34.6808 260.409 20.5614 235.573L2.60731 203.869C-1.02897 196.824 -1.32442 192.597 4.76635 181.938C15.3343 163.461 25.834 145.007 36.2883 126.575C39.2883 121.257 43.1973 118.985 49.5608 118.962C69.1739 118.879 88.7872 118.872 108.4 118.939C108.896 118.935 109.381 118.801 109.808 118.55C110.235 118.298 110.588 117.939 110.832 117.507L174.603 6.25996C175.57 4.56757 176.965 3.15974 178.649 2.17824C180.333 1.19675 182.245 0.676253 184.194 0.669181C196.103 0.646455 208.125 0.66918 220.17 0.53282L243.284 0.0101048C251.033 -0.0580754 259.738 0.737361 263.738 7.7372ZM185.739 16.8961C185.5 16.8959 185.265 16.9589 185.057 17.0785C184.85 17.1982 184.677 17.3705 184.558 17.5779L119.423 131.553C119.11 132.09 118.662 132.536 118.124 132.847C117.586 133.158 116.976 133.323 116.355 133.325H51.2198C49.9471 133.325 49.6289 133.893 50.288 135.007L182.33 365.82C182.899 366.774 182.626 367.229 181.558 367.252L118.036 367.592C117.108 367.562 116.189 367.792 115.385 368.258C114.582 368.725 113.925 369.407 113.491 370.229L83.4918 422.728C82.4918 424.5 83.0145 425.409 85.0372 425.409L214.943 425.591C215.989 425.591 216.761 426.046 217.307 426.978L249.193 482.749C250.238 484.59 251.283 484.612 252.352 482.749L366.122 283.663L383.917 252.254C384.025 252.06 384.183 251.899 384.375 251.786C384.567 251.674 384.785 251.615 385.008 251.615C385.23 251.615 385.448 251.674 385.64 251.786C385.832 251.899 385.99 252.06 386.098 252.254L418.461 309.753C418.704 310.183 419.058 310.541 419.485 310.788C419.913 311.036 420.399 311.165 420.893 311.162L483.687 310.707C483.848 310.709 484.006 310.668 484.146 310.588C484.286 310.508 484.402 310.392 484.482 310.253C484.56 310.114 484.601 309.957 484.601 309.798C484.601 309.639 484.56 309.483 484.482 309.344L418.575 193.756C418.338 193.369 418.212 192.925 418.212 192.472C418.212 192.018 418.338 191.574 418.575 191.187L425.234 179.665L450.688 134.734C451.233 133.802 450.961 133.325 449.892 133.325H186.376C185.035 133.325 184.717 132.734 185.399 131.575L217.989 74.6447C218.233 74.2568 218.362 73.8077 218.362 73.3493C218.362 72.8909 218.233 72.4418 217.989 72.0539L186.944 17.6006C186.825 17.3856 186.651 17.2066 186.439 17.0826C186.227 16.9586 185.985 16.8941 185.739 16.8961ZM328.691 199.165C329.736 199.165 330.009 199.619 329.463 200.528L310.555 233.823L251.17 338.025C251.058 338.228 250.893 338.396 250.693 338.512C250.493 338.629 250.265 338.688 250.033 338.684C249.803 338.683 249.577 338.622 249.377 338.506C249.178 338.391 249.012 338.225 248.897 338.025L170.422 200.937C169.967 200.165 170.194 199.755 171.058 199.71L175.967 199.437L328.736 199.165H328.691Z" fill="black"/>
</g>
<defs>
<clipPath id="clip0_189_70">
<rect width="500" height="500" fill="white"/>
</clipPath>
</defs>
</svg>
