<svg width="500" height="500" viewBox="0 0 500 500" fill="none" xmlns="http://www.w3.org/2000/svg">
<g clip-path="url(#clip0_191_182)">
<path d="M494.882 90.1191C497.754 90.1191 500.144 92.4323 500.144 95.2793V404.443C500.144 407.242 497.754 409.567 494.882 409.567H427.142C424.235 409.567 421.872 407.242 421.872 404.443V95.2793C421.872 92.434 424.233 90.1191 427.142 90.1191H494.882ZM200.914 90.1191C252.014 90.1191 305.444 92.4617 331.797 118.832C357.706 144.783 360.512 196.454 360.62 246.63V404.441C360.62 407.241 358.259 409.565 355.365 409.565H287.634C284.734 409.565 282.363 407.241 282.363 404.441V243.916C282.291 215.891 280.68 187.09 266.228 172.591C253.789 160.117 230.577 157.26 206.44 156.668H83.663C80.7833 156.668 78.4261 158.984 78.4261 161.787V404.443C78.4261 407.242 76.0394 409.567 73.1418 409.567H5.36902C2.47306 409.567 0.143555 407.242 0.143555 404.443V95.2793C0.143555 92.434 2.47142 90.1191 5.36902 90.1191H200.914ZM216.074 213.25C218.957 213.25 221.3 215.557 221.3 218.381V404.443C221.3 407.242 218.956 409.567 216.074 409.567H144.926C142 409.567 139.656 407.242 139.656 404.443V218.381C139.656 215.557 142 213.25 144.926 213.25H216.074Z" fill="black"/>
</g>
<defs>
<clipPath id="clip0_191_182">
<rect width="500" height="500" fill="white"/>
</clipPath>
</defs>
</svg>
