<svg width="500" height="500" viewBox="0 0 500 500" fill="none" xmlns="http://www.w3.org/2000/svg">
<path d="M460.839 118.346L260.677 2.78381C254.25 -0.927936 246.319 -0.927936 239.891 2.78381L39.739 118.346C34.3359 121.466 31 127.235 31 133.484V366.516C31 372.765 34.3359 378.534 39.739 381.654L239.901 497.216C246.328 500.928 254.259 500.928 260.686 497.216L460.848 381.654C466.251 378.534 469.587 372.765 469.587 366.516V133.484C469.587 127.235 466.251 121.466 460.848 118.346H460.839ZM448.266 142.825L255.039 477.502C253.733 479.757 250.284 478.836 250.284 476.224V257.08C250.284 252.702 247.944 248.652 244.148 246.453L54.3699 136.886C52.1147 135.58 53.0355 132.131 55.6479 132.131H442.101C447.589 132.131 451.019 138.079 448.275 142.834H448.266V142.825Z" fill="white"/>
</svg>
