<svg width="500" height="500" viewBox="0 0 500 500" fill="none" xmlns="http://www.w3.org/2000/svg">
<g clip-path="url(#clip0_159_177)">
<path d="M151.108 169.659C155.895 166.667 160.982 166.068 166.368 167.265C171.754 168.761 175.943 171.753 178.636 176.541L216.637 239.677C220.826 246.559 220.826 253.441 216.637 260.323L178.636 323.459C175.644 327.947 171.455 330.64 166.368 331.837C161.281 333.034 156.195 332.136 151.706 329.443C147.218 326.75 144.226 322.86 142.73 317.474C141.233 312.388 141.832 307.301 144.226 302.513L175.943 249.85L144.226 197.187C141.233 192.4 140.635 187.313 141.832 181.927C143.328 176.541 146.32 172.352 151.108 169.659ZM350.988 292.938C356.673 292.938 361.162 295.033 365.351 298.923C369.241 302.813 371.335 307.6 371.335 313.285C371.335 318.971 369.241 323.459 365.351 327.648C361.461 331.538 356.673 333.632 350.988 333.632H275.285C269.6 333.632 265.111 331.538 260.922 327.648C257.032 323.758 254.938 318.971 254.938 313.285C254.938 307.6 257.032 303.112 260.922 298.923C264.812 295.033 269.6 292.938 275.285 292.938H350.988Z" fill="white"/>
<path fill-rule="evenodd" clip-rule="evenodd" d="M219.629 40.0958C208.857 40.0958 198.683 41.8911 188.51 45.1825C178.336 48.474 169.06 53.5607 160.682 60.1436C152.304 66.7265 145.123 74.2071 139.138 83.1837C133.154 92.1604 128.965 101.735 125.972 111.909C123.878 119.39 119.09 124.177 111.61 126.272C103.531 128.366 95.7511 131.658 88.2705 135.847C80.79 140.036 74.2071 145.123 68.2226 151.107C62.2382 157.092 57.1514 163.674 52.9623 171.155C48.7732 178.636 45.4818 186.415 43.3872 194.494C41.2926 202.573 40.0958 210.952 40.0958 219.629C40.0958 228.007 41.2926 236.385 43.3872 244.764C45.4818 252.843 48.7732 260.622 52.9623 268.103C57.1514 275.583 62.2382 282.166 68.2226 288.151C73.6086 293.537 75.404 300.12 73.3094 307.6C71.2149 315.679 70.018 324.057 70.018 332.735C70.018 340.215 70.9156 347.397 72.4117 354.578C74.2071 361.759 76.6009 368.642 79.8923 375.524C83.1837 382.107 87.0736 388.39 91.8612 394.075C96.6487 399.761 101.735 404.847 107.72 409.336C113.704 413.824 119.988 417.714 126.571 420.706C133.453 423.698 140.335 426.092 147.516 427.588C154.698 429.084 162.178 429.683 169.659 429.384C177.139 429.384 184.321 428.187 191.502 426.092L194.195 425.494C200.778 424.596 206.164 426.691 210.952 431.179C216.936 437.163 223.519 442.25 230.999 446.439C238.48 450.628 246.26 453.92 254.339 456.014C262.418 458.109 270.796 459.306 279.473 459.306C287.852 459.306 296.23 458.109 304.608 456.014C312.986 453.92 320.467 450.628 327.947 446.439C335.428 442.25 342.011 437.163 347.995 431.179C353.98 425.195 359.066 418.612 363.256 411.131C367.445 403.651 370.736 395.871 372.831 387.792L373.728 385.398C376.122 379.414 380.61 375.524 387.193 373.728C397.367 371.035 406.942 366.547 415.919 360.563C424.895 354.578 432.376 347.397 438.959 339.019C445.542 330.64 450.329 321.364 453.92 311.191C457.511 301.017 459.007 290.844 459.007 280.072C459.007 253.441 448.235 229.204 430.581 211.55C425.195 206.164 423.399 199.581 425.494 192.101C427.588 184.022 428.785 175.643 428.785 166.966C428.785 159.485 427.888 152.304 426.391 145.123C424.596 137.941 422.202 131.059 418.911 124.177C415.619 117.594 411.73 111.311 406.942 105.625C402.154 99.9402 397.068 94.8534 391.083 90.3651C385.099 85.8767 378.815 81.9868 372.232 78.9946C365.35 76.0024 358.468 73.6086 351.287 72.1125C344.105 70.6164 336.625 70.018 329.144 70.3172C321.664 70.3172 314.482 71.5141 307.301 73.6086C299.821 75.7032 293.238 73.6086 287.852 68.5218C270.198 50.8677 249.252 41.5919 224.417 40.395H219.33L219.629 40.0958ZM219.629 0C253.441 0 284.261 12.2681 308.199 32.6152C315.979 31.1191 324.357 30.5206 332.735 30.5206C342.609 30.5206 352.783 31.7175 362.358 33.8121C372.232 35.9066 381.508 39.1981 390.784 43.3872C399.761 47.5763 408.438 52.9623 416.218 58.9467C424.297 64.9312 431.478 72.1125 437.762 79.5931C444.046 87.3728 449.731 95.4518 454.219 104.428C458.707 113.405 462.298 122.681 464.991 132.256C467.684 141.831 469.18 151.706 469.479 161.879C469.779 171.753 469.479 181.927 467.385 191.801C474.566 200.18 480.551 209.455 485.637 219.33C490.425 229.204 494.315 239.677 496.709 250.449C499.102 261.221 500.299 272.292 500 283.363C500 294.434 498.205 305.206 495.512 315.978C492.519 326.75 488.63 336.924 483.244 346.499C477.858 356.074 471.574 365.051 464.093 373.13C456.613 381.209 448.235 388.39 438.959 394.674C429.683 400.658 419.809 405.745 409.635 409.336C404.847 422.502 398.265 434.77 389.587 446.14C380.91 457.51 371.035 467.086 359.366 475.165C347.696 483.244 335.428 489.527 321.963 493.716C308.498 497.905 294.734 500 280.67 500C247.157 500 217.534 489.228 192.101 467.385C184.321 468.881 175.943 469.479 167.564 469.479C157.391 469.479 147.516 468.282 137.941 466.188C128.067 464.093 118.791 460.802 109.515 456.613C100.539 452.424 91.8612 447.038 84.0814 441.053C76.3016 435.069 68.8211 427.888 62.5374 420.407C56.2537 412.627 50.5685 404.548 46.0802 395.572C41.5919 386.595 38.0012 377.319 35.3082 367.744C32.6152 358.169 31.1191 348.294 30.8199 338.121C30.5206 327.947 30.8199 318.073 32.9144 308.199C12.5673 284.859 1.79533 257.63 0 226.81V219.629C0 205.566 1.79533 191.801 6.28366 178.336C10.4728 164.871 16.7564 152.304 24.8354 140.934C32.9144 129.264 42.4895 119.39 53.86 110.712C64.9312 102.035 77.1993 95.4518 90.6643 90.6643C95.4518 77.4985 102.035 65.2304 110.712 53.86C119.39 42.4895 129.264 32.9144 140.934 24.8354C152.603 16.7564 164.871 10.4728 178.336 6.28366C191.801 2.09455 205.566 0 219.629 0Z" fill="white"/>
</g>
<defs>
<clipPath id="clip0_159_177">
<rect width="500" height="500" fill="white"/>
</clipPath>
</defs>
</svg>
